<svg xmlns="http://www.w3.org/2000/svg" width="1000" height="680" font-family="Arial, sans-serif">
  <defs>
    <marker id="arrow" markerWidth="10" markerHeight="7" refX="9" refY="3.5" orient="auto">
      <polygon points="0 0, 10 3.5, 0 7" fill="#334155"/>
    </marker>
  </defs>
  <!-- Background -->
  <rect width="1000" height="680" fill="#F8FAFC" rx="12"/>
  <text x="500" y="38" text-anchor="middle" font-size="20" font-weight="bold" fill="#1E293B">FundCircle — High-Level System Architecture</text>

  <!-- CLIENT LAYER -->
  <rect x="30" y="60" width="940" height="130" fill="#EFF6FF" rx="10" stroke="#93C5FD" stroke-width="1.5"/>
  <text x="50" y="82" font-size="13" font-weight="bold" fill="#1D4ED8">CLIENT LAYER (Browser / Mobile)</text>
  <rect x="60" y="92" width="160" height="72" fill="#DBEAFE" rx="8" stroke="#60A5FA" stroke-width="1"/>
  <text x="140" y="128" text-anchor="middle" font-size="12" font-weight="bold" fill="#1E40AF">Owner Dashboard</text>
  <text x="140" y="148" text-anchor="middle" font-size="10" fill="#3B82F6">React + Tailwind v4</text>
  <rect x="250" y="92" width="160" height="72" fill="#DBEAFE" rx="8" stroke="#60A5FA" stroke-width="1"/>
  <text x="330" y="128" text-anchor="middle" font-size="12" font-weight="bold" fill="#1E40AF">Agent Dashboard</text>
  <text x="330" y="148" text-anchor="middle" font-size="10" fill="#3B82F6">EMI Collection UI</text>
  <rect x="440" y="92" width="160" height="72" fill="#DBEAFE" rx="8" stroke="#60A5FA" stroke-width="1"/>
  <text x="520" y="128" text-anchor="middle" font-size="12" font-weight="bold" fill="#1E40AF">Customer Portal</text>
  <text x="520" y="148" text-anchor="middle" font-size="10" fill="#3B82F6">Savings &amp; Loans View</text>
  <rect x="630" y="92" width="160" height="72" fill="#DBEAFE" rx="8" stroke="#60A5FA" stroke-width="1"/>
  <text x="710" y="128" text-anchor="middle" font-size="12" font-weight="bold" fill="#1E40AF">Landing Page</text>
  <text x="710" y="148" text-anchor="middle" font-size="10" fill="#3B82F6">Public Marketing Site</text>
  <rect x="820" y="92" width="130" height="72" fill="#DBEAFE" rx="8" stroke="#60A5FA" stroke-width="1"/>
  <text x="885" y="125" text-anchor="middle" font-size="12" font-weight="bold" fill="#1E40AF">Auth Pages</text>
  <text x="885" y="145" text-anchor="middle" font-size="10" fill="#3B82F6">Sign-In/Sign-Up</text>
  <text x="885" y="158" text-anchor="middle" font-size="10" fill="#3B82F6">Custom Clerk UI</text>

  <!-- AUTH LAYER -->
  <rect x="30" y="210" width="440" height="100" fill="#FEF3C7" rx="10" stroke="#FCD34D" stroke-width="1.5"/>
  <text x="50" y="230" font-size="13" font-weight="bold" fill="#92400E">AUTHENTICATION (Clerk)</text>
  <rect x="50" y="240" width="115" height="55" fill="#FDE68A" rx="8" stroke="#F59E0B" stroke-width="1"/>
  <text x="107" y="268" text-anchor="middle" font-size="11" font-weight="bold" fill="#78350F">JWT / Sessions</text>
  <text x="107" y="285" text-anchor="middle" font-size="9" fill="#92400E">Bearer Tokens</text>
  <rect x="180" y="240" width="115" height="55" fill="#FDE68A" rx="8" stroke="#F59E0B" stroke-width="1"/>
  <text x="237" y="268" text-anchor="middle" font-size="11" font-weight="bold" fill="#78350F">Org Membership</text>
  <text x="237" y="285" text-anchor="middle" font-size="9" fill="#92400E">Roles &amp; Invitations</text>
  <rect x="310" y="240" width="140" height="55" fill="#FDE68A" rx="8" stroke="#F59E0B" stroke-width="1"/>
  <text x="380" y="268" text-anchor="middle" font-size="11" font-weight="bold" fill="#78350F">Password Recovery</text>
  <text x="380" y="285" text-anchor="middle" font-size="9" fill="#92400E">OTP / Email Reset</text>

  <!-- API LAYER -->
  <rect x="490" y="210" width="480" height="100" fill="#F0FDF4" rx="10" stroke="#86EFAC" stroke-width="1.5"/>
  <text x="510" y="230" font-size="13" font-weight="bold" fill="#14532D">API SERVER (Express.js — Port 3001)</text>
  <rect x="510" y="240" width="130" height="55" fill="#BBF7D0" rx="8" stroke="#4ADE80" stroke-width="1"/>
  <text x="575" y="265" text-anchor="middle" font-size="11" font-weight="bold" fill="#166534">authMiddleware</text>
  <text x="575" y="280" text-anchor="middle" font-size="9" fill="#15803D">Clerk Token Verify</text>
  <rect x="655" y="240" width="130" height="55" fill="#BBF7D0" rx="8" stroke="#4ADE80" stroke-width="1"/>
  <text x="720" y="262" text-anchor="middle" font-size="11" font-weight="bold" fill="#166534">POST /api/create</text>
  <text x="720" y="277" text-anchor="middle" font-size="10" fill="#15803D">-agent / -customer</text>
  <rect x="800" y="240" width="145" height="55" fill="#BBF7D0" rx="8" stroke="#4ADE80" stroke-width="1"/>
  <text x="872" y="262" text-anchor="middle" font-size="11" font-weight="bold" fill="#166534">PUT /api/update</text>
  <text x="872" y="277" text-anchor="middle" font-size="10" fill="#15803D">-customer/:id</text>

  <!-- DATABASE LAYER -->
  <rect x="30" y="330" width="940" height="130" fill="#FDF4FF" rx="10" stroke="#E879F9" stroke-width="1.5"/>
  <text x="50" y="350" font-size="13" font-weight="bold" fill="#701A75">DATABASE LAYER (Firebase / Firestore)</text>
  <rect x="50" y="360" width="130" height="85" fill="#FAE8FF" rx="8" stroke="#D946EF" stroke-width="1"/>
  <text x="115" y="387" text-anchor="middle" font-size="11" font-weight="bold" fill="#701A75">organizations</text>
  <text x="115" y="403" text-anchor="middle" font-size="9" fill="#86198F">orgMembers</text>
  <text x="115" y="418" text-anchor="middle" font-size="9" fill="#86198F">users</text>
  <rect x="200" y="360" width="130" height="85" fill="#FAE8FF" rx="8" stroke="#D946EF" stroke-width="1"/>
  <text x="265" y="387" text-anchor="middle" font-size="11" font-weight="bold" fill="#701A75">savings_accounts</text>
  <text x="265" y="403" text-anchor="middle" font-size="9" fill="#86198F">savings_plans</text>
  <text x="265" y="418" text-anchor="middle" font-size="9" fill="#86198F">savings_txns</text>
  <rect x="350" y="360" width="130" height="85" fill="#FAE8FF" rx="8" stroke="#D946EF" stroke-width="1"/>
  <text x="415" y="387" text-anchor="middle" font-size="11" font-weight="bold" fill="#701A75">loans</text>
  <text x="415" y="403" text-anchor="middle" font-size="9" fill="#86198F">loan_installments</text>
  <text x="415" y="418" text-anchor="middle" font-size="9" fill="#86198F">loanApplications</text>
  <rect x="500" y="360" width="130" height="85" fill="#FAE8FF" rx="8" stroke="#D946EF" stroke-width="1"/>
  <text x="565" y="387" text-anchor="middle" font-size="11" font-weight="bold" fill="#701A75">collections</text>
  <text x="565" y="403" text-anchor="middle" font-size="9" fill="#86198F">receipts</text>
  <text x="565" y="418" text-anchor="middle" font-size="9" fill="#86198F">receiptCounters</text>
  <rect x="650" y="360" width="130" height="85" fill="#FAE8FF" rx="8" stroke="#D946EF" stroke-width="1"/>
  <text x="715" y="387" text-anchor="middle" font-size="11" font-weight="bold" fill="#701A75">audit_logs</text>
  <text x="715" y="403" text-anchor="middle" font-size="9" fill="#86198F">notifications</text>
  <text x="715" y="418" text-anchor="middle" font-size="9" fill="#86198F">orgCounters</text>
  <rect x="800" y="360" width="150" height="85" fill="#FAE8FF" rx="8" stroke="#D946EF" stroke-width="1"/>
  <text x="875" y="387" text-anchor="middle" font-size="11" font-weight="bold" fill="#701A75">Security Rules</text>
  <text x="875" y="403" text-anchor="middle" font-size="9" fill="#86198F">Role-Based ACL</text>
  <text x="875" y="418" text-anchor="middle" font-size="9" fill="#86198F">Tenant Isolation</text>

  <!-- EXTERNAL SERVICES -->
  <rect x="30" y="480" width="440" height="90" fill="#FFF1F2" rx="10" stroke="#FDA4AF" stroke-width="1.5"/>
  <text x="50" y="500" font-size="13" font-weight="bold" fill="#9F1239">EXTERNAL SERVICES</text>
  <rect x="50" y="510" width="120" height="48" fill="#FFE4E6" rx="8" stroke="#FB7185" stroke-width="1"/>
  <text x="110" y="534" text-anchor="middle" font-size="11" font-weight="bold" fill="#9F1239">Clerk Cloud</text>
  <text x="110" y="549" text-anchor="middle" font-size="9" fill="#BE123C">Identity Provider</text>
  <rect x="190" y="510" width="120" height="48" fill="#FFE4E6" rx="8" stroke="#FB7185" stroke-width="1"/>
  <text x="250" y="534" text-anchor="middle" font-size="11" font-weight="bold" fill="#9F1239">Firebase Cloud</text>
  <text x="250" y="549" text-anchor="middle" font-size="9" fill="#BE123C">Firestore + Storage</text>
  <rect x="330" y="510" width="120" height="48" fill="#FFE4E6" rx="8" stroke="#FB7185" stroke-width="1"/>
  <text x="390" y="534" text-anchor="middle" font-size="11" font-weight="bold" fill="#9F1239">ExcelJS</text>
  <text x="390" y="549" text-anchor="middle" font-size="9" fill="#BE123C">Report Generation</text>

  <!-- TECH STACK -->
  <rect x="490" y="480" width="480" height="90" fill="#F0F9FF" rx="10" stroke="#7DD3FC" stroke-width="1.5"/>
  <text x="510" y="500" font-size="13" font-weight="bold" fill="#0C4A6E">TECH STACK</text>
  <text x="520" y="522" font-size="11" fill="#0369A1">Frontend: React 18 + Vite 6 + TypeScript + Tailwind CSS v4</text>
  <text x="520" y="540" font-size="11" fill="#0369A1">Backend: Node.js + Express.js (port 3001)</text>
  <text x="520" y="558" font-size="11" fill="#0369A1">Auth: Clerk (JWT, Org Memberships, Custom UI)</text>

  <!-- Arrows -->
  <line x1="500" y1="155" x2="500" y2="208" stroke="#334155" stroke-width="1.5" marker-end="url(#arrow)"/>
  <line x1="250" y1="305" x2="250" y2="328" stroke="#334155" stroke-width="1.5" marker-end="url(#arrow)"/>
  <line x1="730" y1="305" x2="730" y2="328" stroke="#334155" stroke-width="1.5" marker-end="url(#arrow)"/>
  <line x1="500" y1="458" x2="500" y2="478" stroke="#334155" stroke-width="1.5" marker-end="url(#arrow)"/>
</svg>