<svg xmlns="http://www.w3.org/2000/svg" width="800" height="500" font-family="Arial, sans-serif">
  <rect width="800" height="500" fill="#F8FAFC" rx="12"/>
  <text x="400" y="34" text-anchor="middle" font-size="20" font-weight="bold" fill="#1E293B">FundCircle — DFD Level 0 (Context Diagram)</text>
  <!-- External Entities -->
  <rect x="30" y="200" width="130" height="50" fill="#DBEAFE" stroke="#3B82F6" stroke-width="2" rx="4"/>
  <text x="95" y="231" text-anchor="middle" font-size="13" font-weight="bold" fill="#1E40AF">Owner/Admin</text>
  <rect x="640" y="200" width="130" height="50" fill="#D1FAE5" stroke="#10B981" stroke-width="2" rx="4"/>
  <text x="705" y="231" text-anchor="middle" font-size="13" font-weight="bold" fill="#065F46">Agent/Collector</text>
  <rect x="30" y="380" width="130" height="50" fill="#F3E8FF" stroke="#A855F7" stroke-width="2" rx="4"/>
  <text x="95" y="411" text-anchor="middle" font-size="13" font-weight="bold" fill="#6B21A8">Customer</text>
  <rect x="640" y="380" width="130" height="50" fill="#FEF3C7" stroke="#F59E0B" stroke-width="2" rx="4"/>
  <text x="705" y="411" text-anchor="middle" font-size="13" font-weight="bold" fill="#78350F">Clerk / Firebase</text>
  <!-- Central Process -->
  <ellipse cx="400" cy="290" rx="150" ry="90" fill="#FFF" stroke="#1E293B" stroke-width="3"/>
  <text x="400" y="280" text-anchor="middle" font-size="16" font-weight="bold" fill="#1E293B">FundCircle</text>
  <text x="400" y="300" text-anchor="middle" font-size="12" fill="#475569">Pigmy Savings &amp;</text>
  <text x="400" y="316" text-anchor="middle" font-size="12" fill="#475569">Loan Platform</text>
  <!-- Arrows -->
  <line x1="160" y1="220" x2="248" y2="265" stroke="#334155" stroke-width="1.5" marker-end="url(#arr)"/>
  <text x="190" y="245" font-size="10" fill="#334155">Org/Customer/</text>
  <text x="190" y="258" font-size="10" fill="#334155">Loan Management</text>
  <line x1="248" y1="290" x2="160" y2="290" stroke="#334155" stroke-width="1.5" marker-end="url(#arr)"/>
  <text x="165" y="283" font-size="10" fill="#334155">Reports/Alerts</text>
  <line x1="640" y1="220" x2="552" y2="265" stroke="#334155" stroke-width="1.5" marker-end="url(#arr)"/>
  <text x="565" y="245" font-size="10" fill="#334155">Collections/</text>
  <text x="565" y="258" font-size="10" fill="#334155">EMI Payments</text>
  <line x1="552" y1="290" x2="640" y2="290" stroke="#334155" stroke-width="1.5" marker-end="url(#arr)"/>
  <text x="555" y="283" font-size="10" fill="#334155">Receipts</text>
  <line x1="160" y1="400" x2="248" y2="340" stroke="#334155" stroke-width="1.5" marker-end="url(#arr)"/>
  <text x="165" y="365" font-size="10" fill="#334155">Loan Application</text>
  <line x1="248" y1="350" x2="160" y2="390" stroke="#334155" stroke-width="1.5" marker-end="url(#arr)"/>
  <text x="165" y="380" font-size="10" fill="#334155">Account Info</text>
  <line x1="640" y1="400" x2="552" y2="340" stroke="#334155" stroke-width="1.5" marker-end="url(#arr)"/>
  <text x="570" y="365" font-size="10" fill="#334155">Auth/Storage</text>
  <line x1="552" y1="350" x2="640" y2="395" stroke="#334155" stroke-width="1.5" marker-end="url(#arr)"/>
  <text x="555" y="378" font-size="10" fill="#334155">Tokens/Data</text>
  <defs><marker id="arr" markerWidth="8" markerHeight="6" refX="7" refY="3" orient="auto"><polygon points="0 0,8 3,0 6" fill="#334155"/></marker></defs>
</svg>