<svg xmlns="http://www.w3.org/2000/svg" width="1000" height="680" font-family="Arial, sans-serif">
  <defs><marker id="as" markerWidth="8" markerHeight="6" refX="7" refY="3" orient="auto"><polygon points="0 0,8 3,0 6" fill="#334155"/></marker></defs>
  <rect width="1000" height="680" fill="#F8FAFC" rx="12"/>
  <text x="500" y="34" text-anchor="middle" font-size="18" font-weight="bold" fill="#1E293B">FundCircle — Loan Approval Sequence Diagram</text>

  <!-- Actors/Systems -->
  <rect x="30" y="55" width="100" height="36" fill="#DBEAFE" stroke="#3B82F6" stroke-width="2" rx="6"/>
  <text x="80" y="78" text-anchor="middle" font-size="12" font-weight="bold" fill="#1E40AF">Customer</text>
  <rect x="190" y="55" width="100" height="36" fill="#FEF3C7" stroke="#F59E0B" stroke-width="2" rx="6"/>
  <text x="240" y="78" text-anchor="middle" font-size="12" font-weight="bold" fill="#78350F">React UI</text>
  <rect x="350" y="55" width="100" height="36" fill="#F0FDF4" stroke="#22C55E" stroke-width="2" rx="6"/>
  <text x="400" y="78" text-anchor="middle" font-size="12" font-weight="bold" fill="#14532D">RoleRouter</text>
  <rect x="510" y="55" width="110" height="36" fill="#FDF4FF" stroke="#A855F7" stroke-width="2" rx="6"/>
  <text x="565" y="78" text-anchor="middle" font-size="12" font-weight="bold" fill="#7E22CE">Firestore</text>
  <rect x="680" y="55" width="100" height="36" fill="#FFF1F2" stroke="#F43F5E" stroke-width="2" rx="6"/>
  <text x="730" y="78" text-anchor="middle" font-size="12" font-weight="bold" fill="#BE123C">API Server</text>
  <rect x="840" y="55" width="100" height="36" fill="#E0F2FE" stroke="#0284C7" stroke-width="2" rx="6"/>
  <text x="890" y="78" text-anchor="middle" font-size="12" font-weight="bold" fill="#075985">Clerk</text>

  <!-- Lifelines -->
  <line x1="80" y1="91" x2="80" y2="660" stroke="#3B82F6" stroke-width="1" stroke-dasharray="4,3"/>
  <line x1="240" y1="91" x2="240" y2="660" stroke="#F59E0B" stroke-width="1" stroke-dasharray="4,3"/>
  <line x1="400" y1="91" x2="400" y2="660" stroke="#22C55E" stroke-width="1" stroke-dasharray="4,3"/>
  <line x1="565" y1="91" x2="565" y2="660" stroke="#A855F7" stroke-width="1" stroke-dasharray="4,3"/>
  <line x1="730" y1="91" x2="730" y2="660" stroke="#F43F5E" stroke-width="1" stroke-dasharray="4,3"/>
  <line x1="890" y1="91" x2="890" y2="660" stroke="#0284C7" stroke-width="1" stroke-dasharray="4,3"/>

  <!-- Step 1 -->
  <line x1="80" y1="130" x2="235" y2="130" stroke="#334155" stroke-width="1.5" marker-end="url(#as)"/>
  <rect x="80" y="118" width="155" height="4" fill="#BFDBFE"/>
  <text x="155" y="122" text-anchor="middle" font-size="10" fill="#1E40AF">1. Submit loan application</text>

  <!-- Step 2 -->
  <line x1="240" y1="155" x2="395" y2="155" stroke="#334155" stroke-width="1.5" marker-end="url(#as)"/>
  <text x="315" y="148" text-anchor="middle" font-size="10" fill="#475569">2. Validate form + auth</text>

  <!-- Step 3 -->
  <line x1="400" y1="180" x2="560" y2="180" stroke="#334155" stroke-width="1.5" marker-end="url(#as)"/>
  <text x="480" y="173" text-anchor="middle" font-size="10" fill="#475569">3. Write loanApplications doc</text>

  <!-- Step 4 (return) -->
  <line x1="560" y1="205" x2="242" y2="205" stroke="#334155" stroke-width="1.5" stroke-dasharray="4,3" marker-end="url(#as)"/>
  <text x="400" y="198" text-anchor="middle" font-size="10" fill="#475569">4. doc ID returned</text>

  <!-- Step 5 -->
  <line x1="240" y1="230" x2="82" y2="230" stroke="#334155" stroke-width="1.5" stroke-dasharray="4,3" marker-end="url(#as)"/>
  <text x="160" y="223" text-anchor="middle" font-size="10" fill="#475569">5. "Application submitted"</text>

  <!-- Divider -->
  <line x1="30" y1="248" x2="970" y2="248" stroke="#CBD5E1" stroke-width="1" stroke-dasharray="3,3"/>
  <text x="500" y="262" text-anchor="middle" font-size="11" font-weight="bold" fill="#64748B">— Owner Reviews Application —</text>

  <!-- Step 6 -->
  <line x1="240" y1="278" x2="560" y2="278" stroke="#334155" stroke-width="1.5" marker-end="url(#as)"/>
  <text x="400" y="271" text-anchor="middle" font-size="10" fill="#475569">6. Owner opens LoanApprovalDialog</text>

  <!-- Step 7 -->
  <line x1="560" y1="303" x2="242" y2="303" stroke="#334155" stroke-width="1.5" stroke-dasharray="4,3" marker-end="url(#as)"/>
  <text x="400" y="296" text-anchor="middle" font-size="10" fill="#475569">7. Loan + Customer data</text>

  <!-- Step 8 -->
  <line x1="240" y1="328" x2="725" y2="328" stroke="#334155" stroke-width="1.5" marker-end="url(#as)"/>
  <text x="480" y="321" text-anchor="middle" font-size="10" fill="#475569">8. POST /api (approveLoan call)</text>

  <!-- Step 9 -->
  <line x1="730" y1="353" x2="885" y2="353" stroke="#334155" stroke-width="1.5" marker-end="url(#as)"/>
  <text x="807" y="346" text-anchor="middle" font-size="10" fill="#475569">9. Verify Bearer token</text>

  <!-- Step 10 -->
  <line x1="890" y1="378" x2="732" y2="378" stroke="#334155" stroke-width="1.5" stroke-dasharray="4,3" marker-end="url(#as)"/>
  <text x="810" y="371" text-anchor="middle" font-size="10" fill="#475569">10. Token valid</text>

  <!-- Step 11 -->
  <line x1="730" y1="403" x2="567" y2="403" stroke="#334155" stroke-width="1.5" marker-end="url(#as)"/>
  <text x="645" y="396" text-anchor="middle" font-size="10" fill="#475569">11. Write: loans ACTIVE + installments</text>

  <!-- Step 12 -->
  <line x1="565" y1="428" x2="732" y2="428" stroke="#334155" stroke-width="1.5" stroke-dasharray="4,3" marker-end="url(#as)"/>
  <text x="645" y="421" text-anchor="middle" font-size="10" fill="#475569">12. Firestore ack</text>

  <!-- Step 13 -->
  <line x1="730" y1="453" x2="567" y2="453" stroke="#334155" stroke-width="1.5" marker-end="url(#as)"/>
  <text x="645" y="446" text-anchor="middle" font-size="10" fill="#475569">13. Write: audit_log + notification</text>

  <!-- Step 14 -->
  <line x1="730" y1="478" x2="242" y2="478" stroke="#334155" stroke-width="1.5" stroke-dasharray="4,3" marker-end="url(#as)"/>
  <text x="480" y="471" text-anchor="middle" font-size="10" fill="#475569">14. { success, loanAccountNumber }</text>

  <!-- Step 15 -->
  <line x1="240" y1="503" x2="82" y2="503" stroke="#334155" stroke-width="1.5" stroke-dasharray="4,3" marker-end="url(#as)"/>
  <text x="160" y="496" text-anchor="middle" font-size="10" fill="#10B981">15. Realtime: Loan ACTIVE in portal</text>

  <!-- Step 16 (toast) -->
  <rect x="195" y="520" width="190" height="26" fill="#D1FAE5" stroke="#10B981" stroke-width="1" rx="4"/>
  <text x="290" y="537" text-anchor="middle" font-size="10" font-weight="bold" fill="#065F46">16. fcToast.loanApproved( )</text>
</svg>