<svg xmlns="http://www.w3.org/2000/svg" width="1100" height="820" font-family="Arial, sans-serif">
  <rect width="1100" height="820" fill="#F8FAFC" rx="12"/>
  <text x="550" y="34" text-anchor="middle" font-size="20" font-weight="bold" fill="#1E293B">FundCircle — Entity Relationship Diagram</text>

  <!-- organizations -->
  <rect x="20" y="55" width="190" height="175" fill="#DBEAFE" rx="8" stroke="#3B82F6" stroke-width="2"/>
  <rect x="20" y="55" width="190" height="30" fill="#2563EB" rx="8"/>
  <rect x="20" y="75" width="190" height="10" fill="#2563EB"/>
  <text x="115" y="75" text-anchor="middle" font-size="13" font-weight="bold" fill="white">organizations</text>
  <text x="30" y="102" font-size="10" fill="#1E40AF">PK id (string)</text>
  <text x="30" y="118" font-size="10" fill="#1E293B">name (string)</text>
  <text x="30" y="134" font-size="10" fill="#1E293B">ownerClerkUserId</text>
  <text x="30" y="150" font-size="10" fill="#1E293B">status (ACTIVE/SUSPENDED)</text>
  <text x="30" y="166" font-size="10" fill="#1E293B">limits.maxAgents (int)</text>
  <text x="30" y="182" font-size="10" fill="#1E293B">limits.maxCustomers (int)</text>
  <text x="30" y="198" font-size="10" fill="#1E293B">createdAt (timestamp)</text>
  <text x="30" y="214" font-size="10" fill="#1E293B">orgSlug (string)</text>

  <!-- organizationMembers -->
  <rect x="260" y="55" width="190" height="225" fill="#D1FAE5" rx="8" stroke="#10B981" stroke-width="2"/>
  <rect x="260" y="55" width="190" height="30" fill="#059669" rx="8"/>
  <rect x="260" y="75" width="190" height="10" fill="#059669"/>
  <text x="355" y="75" text-anchor="middle" font-size="13" font-weight="bold" fill="white">organizationMembers</text>
  <text x="270" y="102" font-size="10" fill="#065F46">PK id = orgId_userId</text>
  <text x="270" y="118" font-size="10" fill="#1E293B">FK organizationId</text>
  <text x="270" y="134" font-size="10" fill="#1E293B">FK clerkUserId</text>
  <text x="270" y="150" font-size="10" fill="#1E293B">role (OWNER/AGENT/CUSTOMER)</text>
  <text x="270" y="166" font-size="10" fill="#1E293B">email, phone, address</text>
  <text x="270" y="182" font-size="10" fill="#1E293B">fullName, status</text>
  <text x="270" y="198" font-size="10" fill="#1E293B">assignedAgentId (FK)</text>
  <text x="270" y="214" font-size="10" fill="#1E293B">nomineeName, relation</text>
  <text x="270" y="230" font-size="10" fill="#1E293B">customerType (enum)</text>
  <text x="270" y="246" font-size="10" fill="#1E293B">profileCompleted (bool)</text>
  <text x="270" y="262" font-size="10" fill="#1E293B">createdAt (timestamp)</text>

  <!-- users -->
  <rect x="500" y="55" width="180" height="145" fill="#FEF3C7" rx="8" stroke="#F59E0B" stroke-width="2"/>
  <rect x="500" y="55" width="180" height="30" fill="#D97706" rx="8"/>
  <rect x="500" y="75" width="180" height="10" fill="#D97706"/>
  <text x="590" y="75" text-anchor="middle" font-size="13" font-weight="bold" fill="white">users</text>
  <text x="510" y="102" font-size="10" fill="#78350F">PK id (Clerk UID)</text>
  <text x="510" y="118" font-size="10" fill="#1E293B">clerkUserId</text>
  <text x="510" y="134" font-size="10" fill="#1E293B">email, name</text>
  <text x="510" y="150" font-size="10" fill="#1E293B">role, organizationId</text>
  <text x="510" y="166" font-size="10" fill="#1E293B">createdAt (timestamp)</text>
  <text x="510" y="182" font-size="10" fill="#1E293B">updatedAt (timestamp)</text>

  <!-- savings_accounts -->
  <rect x="20" y="310" width="190" height="175" fill="#E0F2FE" rx="8" stroke="#0284C7" stroke-width="2"/>
  <rect x="20" y="310" width="190" height="30" fill="#0369A1" rx="8"/>
  <rect x="20" y="330" width="190" height="10" fill="#0369A1"/>
  <text x="115" y="330" text-anchor="middle" font-size="13" font-weight="bold" fill="white">savings_accounts</text>
  <text x="30" y="357" font-size="10" fill="#0C4A6E">PK id (auto)</text>
  <text x="30" y="373" font-size="10" fill="#1E293B">FK organizationId</text>
  <text x="30" y="389" font-size="10" fill="#1E293B">FK customerId (membershipId)</text>
  <text x="30" y="405" font-size="10" fill="#1E293B">FK planId</text>
  <text x="30" y="421" font-size="10" fill="#1E293B">totalBalance (number)</text>
  <text x="30" y="437" font-size="10" fill="#1E293B">status (ACTIVE/CLOSED)</text>
  <text x="30" y="453" font-size="10" fill="#1E293B">accountNumber, createdAt</text>
  <text x="30" y="469" font-size="10" fill="#1E293B">assignedAgentId (FK)</text>

  <!-- savings_plans -->
  <rect x="260" y="310" width="190" height="160" fill="#F0FDF4" rx="8" stroke="#4ADE80" stroke-width="2"/>
  <rect x="260" y="310" width="190" height="30" fill="#16A34A" rx="8"/>
  <rect x="260" y="330" width="190" height="10" fill="#16A34A"/>
  <text x="355" y="330" text-anchor="middle" font-size="13" font-weight="bold" fill="white">savings_plans</text>
  <text x="270" y="357" font-size="10" fill="#14532D">PK id (auto)</text>
  <text x="270" y="373" font-size="10" fill="#1E293B">FK organizationId</text>
  <text x="270" y="389" font-size="10" fill="#1E293B">planName, planType</text>
  <text x="270" y="405" font-size="10" fill="#1E293B">interestRate (number)</text>
  <text x="270" y="421" font-size="10" fill="#1E293B">minDeposit (number)</text>
  <text x="270" y="437" font-size="10" fill="#1E293B">status, description</text>
  <text x="270" y="453" font-size="10" fill="#1E293B">createdAt (timestamp)</text>

  <!-- loans -->
  <rect x="500" y="220" width="190" height="220" fill="#FFF7ED" rx="8" stroke="#FB923C" stroke-width="2"/>
  <rect x="500" y="220" width="190" height="30" fill="#EA580C" rx="8"/>
  <rect x="500" y="240" width="190" height="10" fill="#EA580C"/>
  <text x="595" y="240" text-anchor="middle" font-size="13" font-weight="bold" fill="white">loans</text>
  <text x="510" y="267" font-size="10" fill="#7C2D12">PK id (auto)</text>
  <text x="510" y="283" font-size="10" fill="#1E293B">FK organizationId</text>
  <text x="510" y="299" font-size="10" fill="#1E293B">FK customerId</text>
  <text x="510" y="315" font-size="10" fill="#1E293B">principalAmount (number)</text>
  <text x="510" y="331" font-size="10" fill="#1E293B">interestRate (number)</text>
  <text x="510" y="347" font-size="10" fill="#1E293B">tenureMonths (int)</text>
  <text x="510" y="363" font-size="10" fill="#1E293B">emiAmount (number)</text>
  <text x="510" y="379" font-size="10" fill="#1E293B">outstandingBalance</text>
  <text x="510" y="395" font-size="10" fill="#1E293B">status (PENDING/ACTIVE/CLOSED)</text>
  <text x="510" y="411" font-size="10" fill="#1E293B">loanAccountNumber</text>
  <text x="510" y="427" font-size="10" fill="#1E293B">loanAssignedCollectorId</text>

  <!-- loan_installments -->
  <rect x="730" y="220" width="195" height="205" fill="#FDF4FF" rx="8" stroke="#A855F7" stroke-width="2"/>
  <rect x="730" y="220" width="195" height="30" fill="#9333EA" rx="8"/>
  <rect x="730" y="240" width="195" height="10" fill="#9333EA"/>
  <text x="827" y="240" text-anchor="middle" font-size="13" font-weight="bold" fill="white">loan_installments</text>
  <text x="740" y="267" font-size="10" fill="#581C87">PK id (auto)</text>
  <text x="740" y="283" font-size="10" fill="#1E293B">FK loanId</text>
  <text x="740" y="299" font-size="10" fill="#1E293B">FK organizationId</text>
  <text x="740" y="315" font-size="10" fill="#1E293B">FK customerId</text>
  <text x="740" y="331" font-size="10" fill="#1E293B">installmentNo (int)</text>
  <text x="740" y="347" font-size="10" fill="#1E293B">dueDate (timestamp)</text>
  <text x="740" y="363" font-size="10" fill="#1E293B">emiAmount (number)</text>
  <text x="740" y="379" font-size="10" fill="#1E293B">paidAmount (number)</text>
  <text x="740" y="395" font-size="10" fill="#1E293B">status (PENDING/PAID/OVERDUE)</text>
  <text x="740" y="411" font-size="10" fill="#1E293B">paidAt (timestamp)</text>

  <!-- collections -->
  <rect x="20" y="520" width="200" height="205" fill="#FFF1F2" rx="8" stroke="#F43F5E" stroke-width="2"/>
  <rect x="20" y="520" width="200" height="30" fill="#E11D48" rx="8"/>
  <rect x="20" y="540" width="200" height="10" fill="#E11D48"/>
  <text x="120" y="540" text-anchor="middle" font-size="13" font-weight="bold" fill="white">collections</text>
  <text x="30" y="567" font-size="10" fill="#881337">PK id (auto)</text>
  <text x="30" y="583" font-size="10" fill="#1E293B">FK organizationId</text>
  <text x="30" y="599" font-size="10" fill="#1E293B">FK agentId (Clerk UID)</text>
  <text x="30" y="615" font-size="10" fill="#1E293B">FK customerId</text>
  <text x="30" y="631" font-size="10" fill="#1E293B">collectionType (SAVINGS/EMI)</text>
  <text x="30" y="647" font-size="10" fill="#1E293B">amount (number)</text>
  <text x="30" y="663" font-size="10" fill="#1E293B">receiptNo (string)</text>
  <text x="30" y="679" font-size="10" fill="#1E293B">paymentMode (CASH/UPI/etc)</text>
  <text x="30" y="695" font-size="10" fill="#1E293B">collectedAt (timestamp)</text>
  <text x="30" y="711" font-size="10" fill="#1E293B">agentName, customerName</text>

  <!-- audit_logs -->
  <rect x="260" y="520" width="190" height="175" fill="#F0FDF4" rx="8" stroke="#22C55E" stroke-width="2"/>
  <rect x="260" y="520" width="190" height="30" fill="#15803D" rx="8"/>
  <rect x="260" y="540" width="190" height="10" fill="#15803D"/>
  <text x="355" y="540" text-anchor="middle" font-size="13" font-weight="bold" fill="white">audit_logs</text>
  <text x="270" y="567" font-size="10" fill="#14532D">PK id (auto)</text>
  <text x="270" y="583" font-size="10" fill="#1E293B">FK organizationId</text>
  <text x="270" y="599" font-size="10" fill="#1E293B">actorId (Clerk UID)</text>
  <text x="270" y="615" font-size="10" fill="#1E293B">action (enum: 50+ types)</text>
  <text x="270" y="631" font-size="10" fill="#1E293B">module, category</text>
  <text x="270" y="647" font-size="10" fill="#1E293B">entityType, entityId</text>
  <text x="270" y="663" font-size="10" fill="#1E293B">oldValues, newValues (map)</text>
  <text x="270" y="679" font-size="10" fill="#1E293B">createdAt (timestamp)</text>

  <!-- notifications -->
  <rect x="500" y="480" width="190" height="160" fill="#FEF2F2" rx="8" stroke="#EF4444" stroke-width="2"/>
  <rect x="500" y="480" width="190" height="30" fill="#DC2626" rx="8"/>
  <rect x="500" y="500" width="190" height="10" fill="#DC2626"/>
  <text x="595" y="500" text-anchor="middle" font-size="13" font-weight="bold" fill="white">notifications</text>
  <text x="510" y="527" font-size="10" fill="#7F1D1D">PK id (auto)</text>
  <text x="510" y="543" font-size="10" fill="#1E293B">userId (Clerk UID)</text>
  <text x="510" y="559" font-size="10" fill="#1E293B">FK organizationId</text>
  <text x="510" y="575" font-size="10" fill="#1E293B">title, message (string)</text>
  <text x="510" y="591" font-size="10" fill="#1E293B">type (enum)</text>
  <text x="510" y="607" font-size="10" fill="#1E293B">read (boolean)</text>
  <text x="510" y="623" font-size="10" fill="#1E293B">timestamp (serverTimestamp)</text>

  <!-- savings_transactions -->
  <rect x="730" y="460" width="195" height="175" fill="#F0FDFA" rx="8" stroke="#2DD4BF" stroke-width="2"/>
  <rect x="730" y="460" width="195" height="30" fill="#0F766E" rx="8"/>
  <rect x="730" y="480" width="195" height="10" fill="#0F766E"/>
  <text x="827" y="480" text-anchor="middle" font-size="13" font-weight="bold" fill="white">savings_transactions</text>
  <text x="740" y="507" font-size="10" fill="#134E4A">PK id (auto)</text>
  <text x="740" y="523" font-size="10" fill="#1E293B">FK savingsAccountId</text>
  <text x="740" y="539" font-size="10" fill="#1E293B">FK organizationId</text>
  <text x="740" y="555" font-size="10" fill="#1E293B">FK customerId</text>
  <text x="740" y="571" font-size="10" fill="#1E293B">FK agentId (Clerk UID)</text>
  <text x="740" y="587" font-size="10" fill="#1E293B">amount (number)</text>
  <text x="740" y="603" font-size="10" fill="#1E293B">balanceAfter (number)</text>
  <text x="740" y="619" font-size="10" fill="#1E293B">receiptNo (string)</text>
  <text x="740" y="635" font-size="10" fill="#1E293B">collectedAt (timestamp)</text>

  <!-- Relationship lines -->
  <!-- org → orgMembers -->
  <line x1="210" y1="145" x2="260" y2="145" stroke="#334155" stroke-width="1.5" stroke-dasharray="4,3"/>
  <!-- orgMembers → savings_accounts -->
  <line x1="355" y1="280" x2="355" y2="310" stroke="#334155" stroke-width="1.5" stroke-dasharray="4,3"/>
  <!-- orgMembers → loans -->
  <line x1="450" y1="160" x2="500" y2="290" stroke="#334155" stroke-width="1.5" stroke-dasharray="4,3"/>
  <!-- loans → installments -->
  <line x1="690" y1="330" x2="730" y2="330" stroke="#334155" stroke-width="1.5" stroke-dasharray="4,3"/>
  <!-- orgMembers → collections -->
  <line x1="260" y1="620" x2="220" y2="620" stroke="#334155" stroke-width="1.5" stroke-dasharray="4,3"/>
  <!-- savings_accounts → savings_transactions -->
  <line x1="730" y1="550" x2="210" y2="420" stroke="#334155" stroke-width="1.5" stroke-dasharray="4,3"/>

  <!-- Legend -->
  <rect x="730" y="655" width="340" height="60" fill="#F1F5F9" rx="8" stroke="#CBD5E1" stroke-width="1"/>
  <text x="745" y="675" font-size="11" font-weight="bold" fill="#1E293B">Legend:</text>
  <line x1="745" y1="692" x2="785" y2="692" stroke="#334155" stroke-width="1.5" stroke-dasharray="4,3"/>
  <text x="792" y="697" font-size="10" fill="#475569">Foreign Key Relationship</text>
  <text x="745" y="710" font-size="10" fill="#475569">PK = Primary Key   FK = Foreign Key</text>
</svg>